<mxfile host="Electron" agent="Mozilla/5.0 (Windows NT 10.0; Win64; x64) AppleWebKit/537.36 (KHTML, like Gecko) draw.io/26.2.2 Chrome/134.0.6998.178 Electron/35.1.2 Safari/537.36" version="26.2.2">
  <diagram name="Page-1" id="oKpc1l_Igcs4GMacKgKO">
    <mxGraphModel dx="1392" dy="845" grid="1" gridSize="10" guides="1" tooltips="1" connect="1" arrows="1" fold="1" page="1" pageScale="1" pageWidth="850" pageHeight="1100" math="0" shadow="0">
      <root>
        <mxCell id="0" />
        <mxCell id="1" parent="0" />
        <mxCell id="_HXW_Upf4mI-iIRhQuMg-2" value="configuration_request" style="swimlane;fontStyle=1;align=center;verticalAlign=top;childLayout=stackLayout;horizontal=1;startSize=26;horizontalStack=0;resizeParent=1;resizeParentMax=0;resizeLast=0;collapsible=1;marginBottom=0;whiteSpace=wrap;html=1;" parent="1" vertex="1">
          <mxGeometry x="80" y="300" width="240" height="100" as="geometry" />
        </mxCell>
        <mxCell id="_HXW_Upf4mI-iIRhQuMg-3" value="" style="line;strokeWidth=1;fillColor=none;align=left;verticalAlign=middle;spacingTop=-1;spacingLeft=3;spacingRight=3;rotatable=0;labelPosition=right;points=[];portConstraint=eastwest;strokeColor=inherit;" parent="_HXW_Upf4mI-iIRhQuMg-2" vertex="1">
          <mxGeometry y="26" width="240" height="8" as="geometry" />
        </mxCell>
        <mxCell id="_HXW_Upf4mI-iIRhQuMg-4" value="+ initConfigurationRequest(void): void&lt;div&gt;+ deinitConfigurationRequest(void): void&lt;/div&gt;&lt;div&gt;+ getConfigurationRequest(void): uint32_t&lt;/div&gt;" style="text;strokeColor=none;fillColor=none;align=left;verticalAlign=top;spacingLeft=4;spacingRight=4;overflow=hidden;rotatable=0;points=[[0,0.5],[1,0.5]];portConstraint=eastwest;whiteSpace=wrap;html=1;" parent="_HXW_Upf4mI-iIRhQuMg-2" vertex="1">
          <mxGeometry y="34" width="240" height="66" as="geometry" />
        </mxCell>
        <mxCell id="_HXW_Upf4mI-iIRhQuMg-8" value="stop_watch" style="swimlane;fontStyle=1;align=center;verticalAlign=top;childLayout=stackLayout;horizontal=1;startSize=26;horizontalStack=0;resizeParent=1;resizeParentMax=0;resizeLast=0;collapsible=1;marginBottom=0;whiteSpace=wrap;html=1;" parent="1" vertex="1">
          <mxGeometry x="339.99999999999994" y="300" width="210" height="140" as="geometry" />
        </mxCell>
        <mxCell id="_HXW_Upf4mI-iIRhQuMg-9" value="" style="line;strokeWidth=1;fillColor=none;align=left;verticalAlign=middle;spacingTop=-1;spacingLeft=3;spacingRight=3;rotatable=0;labelPosition=right;points=[];portConstraint=eastwest;strokeColor=inherit;" parent="_HXW_Upf4mI-iIRhQuMg-8" vertex="1">
          <mxGeometry y="26" width="210" height="8" as="geometry" />
        </mxCell>
        <mxCell id="_HXW_Upf4mI-iIRhQuMg-10" value="+ initStopWatch(void): void&lt;div&gt;+ deinitStopWatch(void): void&lt;/div&gt;&lt;div&gt;&lt;div&gt;+ startStopWatch(void): void&lt;/div&gt;&lt;div&gt;+ endStopWatch(void): void&lt;/div&gt;&lt;div&gt;+ getElapsedTimeMs(void): uint32_t&lt;/div&gt;&lt;div&gt;+ getElapsedTimeSec(void): uint32_t&lt;/div&gt;&lt;/div&gt;" style="text;strokeColor=none;fillColor=none;align=left;verticalAlign=top;spacingLeft=4;spacingRight=4;overflow=hidden;rotatable=0;points=[[0,0.5],[1,0.5]];portConstraint=eastwest;whiteSpace=wrap;html=1;" parent="_HXW_Upf4mI-iIRhQuMg-8" vertex="1">
          <mxGeometry y="34" width="210" height="106" as="geometry" />
        </mxCell>
        <mxCell id="_HXW_Upf4mI-iIRhQuMg-11" value="navigation" style="swimlane;fontStyle=1;align=center;verticalAlign=top;childLayout=stackLayout;horizontal=1;startSize=26;horizontalStack=0;resizeParent=1;resizeParentMax=0;resizeLast=0;collapsible=1;marginBottom=0;whiteSpace=wrap;html=1;" parent="1" vertex="1">
          <mxGeometry x="570" y="300" width="280" height="260" as="geometry" />
        </mxCell>
        <mxCell id="_HXW_Upf4mI-iIRhQuMg-12" value="" style="line;strokeWidth=1;fillColor=none;align=left;verticalAlign=middle;spacingTop=-1;spacingLeft=3;spacingRight=3;rotatable=0;labelPosition=right;points=[];portConstraint=eastwest;strokeColor=inherit;" parent="_HXW_Upf4mI-iIRhQuMg-11" vertex="1">
          <mxGeometry y="26" width="280" height="8" as="geometry" />
        </mxCell>
        <mxCell id="_HXW_Upf4mI-iIRhQuMg-13" value="+ initNavigation(void): void&lt;div&gt;+ deinitNavigation(void): void&lt;/div&gt;&lt;div&gt;&lt;div&gt;+ turnRight90Degrees(void): void&lt;/div&gt;&lt;div&gt;+ turnLeft90Degrees(void): void&lt;/div&gt;&lt;/div&gt;&lt;div&gt;+ moveForwardOneSquare(void): void&lt;/div&gt;&lt;div&gt;&lt;span style=&quot;background-color: transparent; color: light-dark(rgb(0, 0, 0), rgb(255, 255, 255));&quot;&gt;+ moveForwardNSquares(uint32_t n): void&lt;/span&gt;&lt;/div&gt;&lt;div&gt;&lt;div&gt;&lt;div&gt;+ moveForwardToIntersectionOrTurn(void): void&lt;span style=&quot;background-color: transparent; color: light-dark(rgb(0, 0, 0), rgb(255, 255, 255));&quot;&gt;&lt;/span&gt;&lt;/div&gt;&lt;div&gt;&lt;span style=&quot;background-color: transparent; color: light-dark(rgb(0, 0, 0), rgb(255, 255, 255));&quot;&gt;+ turnRight45Degrees(void): void&lt;/span&gt;&lt;/div&gt;&lt;div&gt;+ turnLeft45Degrees(void): void&lt;/div&gt;&lt;/div&gt;&lt;/div&gt;&lt;div&gt;+ moveDiagonalRightOneSquare(void): void&lt;/div&gt;&lt;div&gt;+ moveDiagonalLeftOneSquare(void): void&lt;/div&gt;&lt;div&gt;+ moveDiagonalNSquares(uint32_t n): void&lt;/div&gt;&lt;div&gt;+ isFrontWallPresent(void): bool&lt;/div&gt;&lt;div&gt;+ isRightWallPresent(void): bool&lt;/div&gt;&lt;div&gt;+ isLeftWallPresent(void): bool&lt;/div&gt;" style="text;strokeColor=none;fillColor=none;align=left;verticalAlign=top;spacingLeft=4;spacingRight=4;overflow=hidden;rotatable=0;points=[[0,0.5],[1,0.5]];portConstraint=eastwest;whiteSpace=wrap;html=1;" parent="_HXW_Upf4mI-iIRhQuMg-11" vertex="1">
          <mxGeometry y="34" width="280" height="226" as="geometry" />
        </mxCell>
        <mxCell id="_HXW_Upf4mI-iIRhQuMg-32" value="issue_indicator" style="swimlane;fontStyle=1;align=center;verticalAlign=top;childLayout=stackLayout;horizontal=1;startSize=26;horizontalStack=0;resizeParent=1;resizeParentMax=0;resizeLast=0;collapsible=1;marginBottom=0;whiteSpace=wrap;html=1;" parent="1" vertex="1">
          <mxGeometry x="880" y="300" width="250" height="120" as="geometry" />
        </mxCell>
        <mxCell id="_HXW_Upf4mI-iIRhQuMg-33" value="" style="line;strokeWidth=1;fillColor=none;align=left;verticalAlign=middle;spacingTop=-1;spacingLeft=3;spacingRight=3;rotatable=0;labelPosition=right;points=[];portConstraint=eastwest;strokeColor=inherit;" parent="_HXW_Upf4mI-iIRhQuMg-32" vertex="1">
          <mxGeometry y="26" width="250" height="8" as="geometry" />
        </mxCell>
        <mxCell id="_HXW_Upf4mI-iIRhQuMg-34" value="+ initIssueIndicator(void): void&lt;div&gt;+ deinitIssueIndicator(void): void&lt;/div&gt;&lt;div&gt;+ endProgramAndAssertIssue(void): void&lt;/div&gt;" style="text;strokeColor=none;fillColor=none;align=left;verticalAlign=top;spacingLeft=4;spacingRight=4;overflow=hidden;rotatable=0;points=[[0,0.5],[1,0.5]];portConstraint=eastwest;whiteSpace=wrap;html=1;" parent="_HXW_Upf4mI-iIRhQuMg-32" vertex="1">
          <mxGeometry y="34" width="250" height="86" as="geometry" />
        </mxCell>
        <mxCell id="CrJSnwOvaSUAMsvAmyHB-18" value="mouse_initialization" style="swimlane;fontStyle=1;align=center;verticalAlign=top;childLayout=stackLayout;horizontal=1;startSize=26;horizontalStack=0;resizeParent=1;resizeParentMax=0;resizeLast=0;collapsible=1;marginBottom=0;whiteSpace=wrap;html=1;" parent="1" vertex="1">
          <mxGeometry x="533.76" y="1230" width="230" height="100" as="geometry" />
        </mxCell>
        <mxCell id="CrJSnwOvaSUAMsvAmyHB-19" value="" style="line;strokeWidth=1;fillColor=none;align=left;verticalAlign=middle;spacingTop=-1;spacingLeft=3;spacingRight=3;rotatable=0;labelPosition=right;points=[];portConstraint=eastwest;strokeColor=inherit;" parent="CrJSnwOvaSUAMsvAmyHB-18" vertex="1">
          <mxGeometry y="26" width="230" height="8" as="geometry" />
        </mxCell>
        <mxCell id="CrJSnwOvaSUAMsvAmyHB-20" value="+ initMouse(void): void&lt;div&gt;+ deinitMouse(void): void&lt;/div&gt;&lt;div&gt;+ isMouseInitialized(void): bool&lt;/div&gt;" style="text;strokeColor=none;fillColor=none;align=left;verticalAlign=top;spacingLeft=4;spacingRight=4;overflow=hidden;rotatable=0;points=[[0,0.5],[1,0.5]];portConstraint=eastwest;whiteSpace=wrap;html=1;" parent="CrJSnwOvaSUAMsvAmyHB-18" vertex="1">
          <mxGeometry y="34" width="230" height="66" as="geometry" />
        </mxCell>
        <mxCell id="CrJSnwOvaSUAMsvAmyHB-21" value="" style="endArrow=none;html=1;rounded=0;" parent="1" edge="1">
          <mxGeometry width="50" height="50" relative="1" as="geometry">
            <mxPoint x="40" y="350" as="sourcePoint" />
            <mxPoint x="1160" y="350" as="targetPoint" />
            <Array as="points">
              <mxPoint x="40" y="1160" />
              <mxPoint x="1160" y="1160" />
            </Array>
          </mxGeometry>
        </mxCell>
        <mxCell id="CrJSnwOvaSUAMsvAmyHB-22" value="" style="endArrow=classic;html=1;rounded=0;" parent="1" edge="1">
          <mxGeometry width="50" height="50" relative="1" as="geometry">
            <mxPoint x="652.51" y="1160" as="sourcePoint" />
            <mxPoint x="652.51" y="1230" as="targetPoint" />
          </mxGeometry>
        </mxCell>
        <mxCell id="CrJSnwOvaSUAMsvAmyHB-40" value="parameter_editor" style="swimlane;fontStyle=1;align=center;verticalAlign=top;childLayout=stackLayout;horizontal=1;startSize=26;horizontalStack=0;resizeParent=1;resizeParentMax=0;resizeLast=0;collapsible=1;marginBottom=0;whiteSpace=wrap;html=1;" parent="1" vertex="1">
          <mxGeometry x="80" y="600" width="430" height="520" as="geometry" />
        </mxCell>
        <mxCell id="CrJSnwOvaSUAMsvAmyHB-41" value="" style="line;strokeWidth=1;fillColor=none;align=left;verticalAlign=middle;spacingTop=-1;spacingLeft=3;spacingRight=3;rotatable=0;labelPosition=right;points=[];portConstraint=eastwest;strokeColor=inherit;" parent="CrJSnwOvaSUAMsvAmyHB-40" vertex="1">
          <mxGeometry y="26" width="430" height="8" as="geometry" />
        </mxCell>
        <mxCell id="CrJSnwOvaSUAMsvAmyHB-42" value="&lt;div&gt;+ initParameterConfigurator(void): void&lt;/div&gt;&lt;div&gt;+ deinitParameterConfigurator(void): void&lt;/div&gt;&lt;div&gt;&lt;br&gt;&lt;/div&gt;&lt;div&gt;+ printMinimumTurnSpeed(void): void&lt;/div&gt;&lt;div&gt;+ printMaximumTurnSpeed(void): void&lt;/div&gt;&lt;div&gt;+ printMinimumMoveForwardSpeed(void): void&lt;/div&gt;&lt;div&gt;+ printMaximum&lt;span style=&quot;background-color: transparent; color: light-dark(rgb(0, 0, 0), rgb(255, 255, 255));&quot;&gt;MoveForward&lt;/span&gt;&lt;span style=&quot;background-color: transparent; color: light-dark(rgb(0, 0, 0), rgb(255, 255, 255));&quot;&gt;Speed(void): void&lt;/span&gt;&lt;/div&gt;&lt;div&gt;+ printEncoderEdgesPerRevolution(void): void&lt;/div&gt;&lt;div&gt;+ printEncoderEdgesPerOneSquare(void): void&lt;/div&gt;&lt;div&gt;+ printEncoderEdgesPerTurn90Degrees(void): void&lt;/div&gt;&lt;div&gt;+ printEncoderEdgesPerTurn45Degrees(void): void&lt;/div&gt;&lt;div&gt;+ printEncoderKpTerm(void): void&lt;/div&gt;&lt;div&gt;+ printEncoderKdTerm(void): void&lt;/div&gt;&lt;div&gt;+ printInfraredSensorKpTerm(void): void&lt;/div&gt;&lt;div&gt;+ printInfraredSensorKdTerm(void): void&lt;/div&gt;&lt;div&gt;+ printFrontSensorReadingThreshold(void): void&lt;/div&gt;&lt;div&gt;+ printDiagonalSensorReadingThreshold(void): void&lt;/div&gt;&lt;div&gt;&lt;br&gt;&lt;/div&gt;&lt;div&gt;&lt;div&gt;+ setMinimumTurnSpeed(uint32_t newSpeed): void&lt;/div&gt;&lt;div&gt;+ setMaximumTurnSpeed(uint32_t&amp;nbsp;&lt;span style=&quot;background-color: transparent; color: light-dark(rgb(0, 0, 0), rgb(255, 255, 255));&quot;&gt;newSpeed&lt;/span&gt;&lt;span style=&quot;background-color: transparent; color: light-dark(rgb(0, 0, 0), rgb(255, 255, 255));&quot;&gt;): void&lt;/span&gt;&lt;/div&gt;&lt;div&gt;+&amp;nbsp;&lt;span style=&quot;background-color: transparent; color: light-dark(rgb(0, 0, 0), rgb(255, 255, 255));&quot;&gt;set&lt;/span&gt;&lt;span style=&quot;background-color: transparent; color: light-dark(rgb(0, 0, 0), rgb(255, 255, 255));&quot;&gt;MinimumMoveForwardSpeed(&lt;/span&gt;uint32_t&amp;nbsp;&lt;span style=&quot;background-color: transparent; color: light-dark(rgb(0, 0, 0), rgb(255, 255, 255));&quot;&gt;newSpeed&lt;/span&gt;&lt;span style=&quot;background-color: transparent; color: light-dark(rgb(0, 0, 0), rgb(255, 255, 255));&quot;&gt;): void&lt;/span&gt;&lt;/div&gt;&lt;div&gt;+&amp;nbsp;&lt;span style=&quot;background-color: transparent; color: light-dark(rgb(0, 0, 0), rgb(255, 255, 255));&quot;&gt;set&lt;/span&gt;&lt;span style=&quot;background-color: transparent; color: light-dark(rgb(0, 0, 0), rgb(255, 255, 255));&quot;&gt;Maximum&lt;/span&gt;&lt;span style=&quot;background-color: transparent; color: light-dark(rgb(0, 0, 0), rgb(255, 255, 255));&quot;&gt;MoveForward&lt;/span&gt;&lt;span style=&quot;background-color: transparent; color: light-dark(rgb(0, 0, 0), rgb(255, 255, 255));&quot;&gt;Speed(&lt;/span&gt;uint32_t&amp;nbsp;&lt;span style=&quot;background-color: transparent; color: light-dark(rgb(0, 0, 0), rgb(255, 255, 255));&quot;&gt;newSpeed&lt;/span&gt;&lt;span style=&quot;background-color: transparent; color: light-dark(rgb(0, 0, 0), rgb(255, 255, 255));&quot;&gt;): void&lt;/span&gt;&lt;/div&gt;&lt;div&gt;+&amp;nbsp;&lt;span style=&quot;background-color: transparent; color: light-dark(rgb(0, 0, 0), rgb(255, 255, 255));&quot;&gt;set&lt;/span&gt;&lt;span style=&quot;background-color: transparent; color: light-dark(rgb(0, 0, 0), rgb(255, 255, 255));&quot;&gt;EncoderEdgesPerRevolution(&lt;/span&gt;uint32_t&amp;nbsp;newEdgeCount&lt;span style=&quot;background-color: transparent; color: light-dark(rgb(0, 0, 0), rgb(255, 255, 255));&quot;&gt;): void&lt;/span&gt;&lt;/div&gt;&lt;div&gt;+&amp;nbsp;&lt;span style=&quot;background-color: transparent; color: light-dark(rgb(0, 0, 0), rgb(255, 255, 255));&quot;&gt;set&lt;/span&gt;&lt;span style=&quot;background-color: transparent; color: light-dark(rgb(0, 0, 0), rgb(255, 255, 255));&quot;&gt;EncoderEdgesPerOneSquare(&lt;/span&gt;uint32_t&amp;nbsp;&lt;span style=&quot;background-color: transparent; color: light-dark(rgb(0, 0, 0), rgb(255, 255, 255));&quot;&gt;newEdgeCount&lt;/span&gt;&lt;span style=&quot;background-color: transparent; color: light-dark(rgb(0, 0, 0), rgb(255, 255, 255));&quot;&gt;): void&lt;/span&gt;&lt;/div&gt;&lt;div&gt;+&amp;nbsp;&lt;span style=&quot;background-color: transparent; color: light-dark(rgb(0, 0, 0), rgb(255, 255, 255));&quot;&gt;set&lt;/span&gt;&lt;span style=&quot;background-color: transparent; color: light-dark(rgb(0, 0, 0), rgb(255, 255, 255));&quot;&gt;EncoderEdgesPerTurn90Degrees(&lt;/span&gt;uint32_t&amp;nbsp;&lt;span style=&quot;background-color: transparent; color: light-dark(rgb(0, 0, 0), rgb(255, 255, 255));&quot;&gt;newEdgeCount&lt;/span&gt;&lt;span style=&quot;background-color: transparent; color: light-dark(rgb(0, 0, 0), rgb(255, 255, 255));&quot;&gt;): void&lt;/span&gt;&lt;/div&gt;&lt;div&gt;+&amp;nbsp;&lt;span style=&quot;background-color: transparent; color: light-dark(rgb(0, 0, 0), rgb(255, 255, 255));&quot;&gt;set&lt;/span&gt;&lt;span style=&quot;background-color: transparent; color: light-dark(rgb(0, 0, 0), rgb(255, 255, 255));&quot;&gt;EncoderEdgesPerTurn45Degrees(&lt;/span&gt;uint32_t&amp;nbsp;&lt;span style=&quot;background-color: transparent; color: light-dark(rgb(0, 0, 0), rgb(255, 255, 255));&quot;&gt;newEdgeCount&lt;/span&gt;&lt;span style=&quot;background-color: transparent; color: light-dark(rgb(0, 0, 0), rgb(255, 255, 255));&quot;&gt;): void&lt;/span&gt;&lt;/div&gt;&lt;div&gt;+&amp;nbsp;&lt;span style=&quot;background-color: transparent; color: light-dark(rgb(0, 0, 0), rgb(255, 255, 255));&quot;&gt;set&lt;/span&gt;&lt;span style=&quot;background-color: transparent; color: light-dark(rgb(0, 0, 0), rgb(255, 255, 255));&quot;&gt;EncoderKpTerm(&lt;/span&gt;uint32_t newKp&lt;span style=&quot;background-color: transparent; color: light-dark(rgb(0, 0, 0), rgb(255, 255, 255));&quot;&gt;): void&lt;/span&gt;&lt;/div&gt;&lt;div&gt;+&amp;nbsp;&lt;span style=&quot;background-color: transparent; color: light-dark(rgb(0, 0, 0), rgb(255, 255, 255));&quot;&gt;set&lt;/span&gt;&lt;span style=&quot;background-color: transparent; color: light-dark(rgb(0, 0, 0), rgb(255, 255, 255));&quot;&gt;EncoderKdTerm(&lt;/span&gt;uint32_t newKd&lt;span style=&quot;background-color: transparent; color: light-dark(rgb(0, 0, 0), rgb(255, 255, 255));&quot;&gt;): void&lt;/span&gt;&lt;/div&gt;&lt;div&gt;+&amp;nbsp;&lt;span style=&quot;background-color: transparent; color: light-dark(rgb(0, 0, 0), rgb(255, 255, 255));&quot;&gt;set&lt;/span&gt;&lt;span style=&quot;background-color: transparent; color: light-dark(rgb(0, 0, 0), rgb(255, 255, 255));&quot;&gt;InfraredSensorKpTerm(&lt;/span&gt;uint32_t newKp&lt;span style=&quot;background-color: transparent; color: light-dark(rgb(0, 0, 0), rgb(255, 255, 255));&quot;&gt;): void&lt;/span&gt;&lt;/div&gt;&lt;div&gt;+&amp;nbsp;&lt;span style=&quot;background-color: transparent; color: light-dark(rgb(0, 0, 0), rgb(255, 255, 255));&quot;&gt;set&lt;/span&gt;&lt;span style=&quot;background-color: transparent; color: light-dark(rgb(0, 0, 0), rgb(255, 255, 255));&quot;&gt;InfraredSensorKdTerm(&lt;/span&gt;uint32_t newKd&lt;span style=&quot;background-color: transparent; color: light-dark(rgb(0, 0, 0), rgb(255, 255, 255));&quot;&gt;): void&lt;/span&gt;&lt;/div&gt;&lt;div&gt;+&amp;nbsp;&lt;span style=&quot;background-color: transparent; color: light-dark(rgb(0, 0, 0), rgb(255, 255, 255));&quot;&gt;set&lt;/span&gt;&lt;span style=&quot;background-color: transparent; color: light-dark(rgb(0, 0, 0), rgb(255, 255, 255));&quot;&gt;FrontSensorReadingThreshold(&lt;/span&gt;uint32_t newThreshold&lt;span style=&quot;background-color: transparent; color: light-dark(rgb(0, 0, 0), rgb(255, 255, 255));&quot;&gt;): void&lt;/span&gt;&lt;/div&gt;&lt;div&gt;+&amp;nbsp;&lt;span style=&quot;background-color: transparent; color: light-dark(rgb(0, 0, 0), rgb(255, 255, 255));&quot;&gt;set&lt;/span&gt;&lt;span style=&quot;background-color: transparent; color: light-dark(rgb(0, 0, 0), rgb(255, 255, 255));&quot;&gt;DiagonalSensorReadingThreshold(&lt;/span&gt;uint32_t newThreshold&lt;span style=&quot;background-color: transparent; color: light-dark(rgb(0, 0, 0), rgb(255, 255, 255));&quot;&gt;): void&lt;/span&gt;&lt;/div&gt;&lt;/div&gt;" style="text;strokeColor=none;fillColor=none;align=left;verticalAlign=top;spacingLeft=4;spacingRight=4;overflow=hidden;rotatable=0;points=[[0,0.5],[1,0.5]];portConstraint=eastwest;whiteSpace=wrap;html=1;" parent="CrJSnwOvaSUAMsvAmyHB-40" vertex="1">
          <mxGeometry y="34" width="430" height="486" as="geometry" />
        </mxCell>
        <mxCell id="rvAzbzZg28L-5Bt6jg7m-11" value="&lt;div&gt;mouse_interface&lt;/div&gt;&lt;div&gt;&lt;hr&gt;&lt;br&gt;&lt;/div&gt;&lt;div&gt;&lt;br&gt;&lt;/div&gt;&lt;div&gt;&lt;br&gt;&lt;/div&gt;&lt;div&gt;&lt;br&gt;&lt;/div&gt;&lt;div&gt;&lt;br&gt;&lt;/div&gt;&lt;div&gt;&lt;br&gt;&lt;/div&gt;&lt;div&gt;&lt;br&gt;&lt;/div&gt;&lt;div&gt;&lt;br&gt;&lt;/div&gt;&lt;div&gt;&lt;br&gt;&lt;/div&gt;" style="shape=folder;fontStyle=1;tabWidth=80;tabHeight=30;tabPosition=left;html=1;boundedLbl=1;whiteSpace=wrap;" vertex="1" parent="1">
          <mxGeometry x="40" y="40" width="883.76" height="220" as="geometry" />
        </mxCell>
        <mxCell id="rvAzbzZg28L-5Bt6jg7m-12" value="&lt;b&gt;configuration_request&lt;/b&gt;" style="rounded=0;whiteSpace=wrap;html=1;" vertex="1" parent="1">
          <mxGeometry x="62.64999999999992" y="120" width="150" height="40" as="geometry" />
        </mxCell>
        <mxCell id="rvAzbzZg28L-5Bt6jg7m-13" value="&lt;b&gt;stop_watch&lt;/b&gt;" style="rounded=0;whiteSpace=wrap;html=1;" vertex="1" parent="1">
          <mxGeometry x="243.90999999999997" y="120" width="90" height="40" as="geometry" />
        </mxCell>
        <mxCell id="rvAzbzZg28L-5Bt6jg7m-14" value="&lt;b&gt;navigation&lt;/b&gt;" style="rounded=0;whiteSpace=wrap;html=1;" vertex="1" parent="1">
          <mxGeometry x="363.90000000000003" y="120" width="100" height="40" as="geometry" />
        </mxCell>
        <mxCell id="rvAzbzZg28L-5Bt6jg7m-15" style="edgeStyle=orthogonalEdgeStyle;rounded=0;orthogonalLoop=1;jettySize=auto;html=1;exitX=0.5;exitY=1;exitDx=0;exitDy=0;" edge="1" parent="1" source="rvAzbzZg28L-5Bt6jg7m-13" target="rvAzbzZg28L-5Bt6jg7m-13">
          <mxGeometry relative="1" as="geometry" />
        </mxCell>
        <mxCell id="rvAzbzZg28L-5Bt6jg7m-16" value="&lt;b&gt;issue_indicator&lt;/b&gt;" style="rounded=0;whiteSpace=wrap;html=1;" vertex="1" parent="1">
          <mxGeometry x="494.5200000000002" y="120" width="115.64" height="40" as="geometry" />
        </mxCell>
        <mxCell id="rvAzbzZg28L-5Bt6jg7m-17" value="" style="endArrow=none;html=1;rounded=0;" edge="1" parent="1">
          <mxGeometry width="50" height="50" relative="1" as="geometry">
            <mxPoint x="915.1600000000001" y="150" as="sourcePoint" />
            <mxPoint x="52.349999999999966" y="150" as="targetPoint" />
            <Array as="points">
              <mxPoint x="915.1600000000001" y="170" />
              <mxPoint x="915.1600000000001" y="180" />
              <mxPoint x="52.339999999999975" y="180" />
            </Array>
          </mxGeometry>
        </mxCell>
        <mxCell id="rvAzbzZg28L-5Bt6jg7m-18" value="&lt;b&gt;mouse_initialization&lt;/b&gt;" style="rounded=0;whiteSpace=wrap;html=1;" vertex="1" parent="1">
          <mxGeometry x="415.32000000000016" y="210" width="131.56" height="40" as="geometry" />
        </mxCell>
        <mxCell id="rvAzbzZg28L-5Bt6jg7m-19" value="" style="endArrow=classic;html=1;rounded=0;entryX=0.5;entryY=0;entryDx=0;entryDy=0;" edge="1" parent="1" target="rvAzbzZg28L-5Bt6jg7m-18">
          <mxGeometry width="50" height="50" relative="1" as="geometry">
            <mxPoint x="481.18000000000006" y="180" as="sourcePoint" />
            <mxPoint x="461.18000000000006" y="190" as="targetPoint" />
          </mxGeometry>
        </mxCell>
        <mxCell id="rvAzbzZg28L-5Bt6jg7m-20" value="&lt;b&gt;parameter_editor&lt;/b&gt;" style="rounded=0;whiteSpace=wrap;html=1;" vertex="1" parent="1">
          <mxGeometry x="638.9200000000001" y="120" width="124.84" height="40" as="geometry" />
        </mxCell>
        <mxCell id="rvAzbzZg28L-5Bt6jg7m-21" value="&lt;b&gt;parameter_test&lt;/b&gt;" style="rounded=0;whiteSpace=wrap;html=1;" vertex="1" parent="1">
          <mxGeometry x="785.01" y="120" width="114.84" height="40" as="geometry" />
        </mxCell>
        <mxCell id="rvAzbzZg28L-5Bt6jg7m-22" value="parameter_test" style="swimlane;fontStyle=1;align=center;verticalAlign=top;childLayout=stackLayout;horizontal=1;startSize=26;horizontalStack=0;resizeParent=1;resizeParentMax=0;resizeLast=0;collapsible=1;marginBottom=0;whiteSpace=wrap;html=1;" vertex="1" parent="1">
          <mxGeometry x="546.88" y="600" width="380" height="200" as="geometry" />
        </mxCell>
        <mxCell id="rvAzbzZg28L-5Bt6jg7m-23" value="" style="line;strokeWidth=1;fillColor=none;align=left;verticalAlign=middle;spacingTop=-1;spacingLeft=3;spacingRight=3;rotatable=0;labelPosition=right;points=[];portConstraint=eastwest;strokeColor=inherit;" vertex="1" parent="rvAzbzZg28L-5Bt6jg7m-22">
          <mxGeometry y="26" width="380" height="8" as="geometry" />
        </mxCell>
        <mxCell id="rvAzbzZg28L-5Bt6jg7m-24" value="&lt;div&gt;+ initParameterTest(void): void&lt;/div&gt;&lt;div&gt;+ deinitParameterTest(void): void&lt;/div&gt;&lt;div&gt;&lt;br&gt;&lt;/div&gt;&lt;div&gt;+ runFindStableSpeedTestAndPrintResults(void): void&lt;/div&gt;&lt;div&gt;+ runMoveForwardOneSquareTestAndPrintResults(void): void&lt;/div&gt;&lt;div&gt;+ runFindOptimalDeccelerationTimeTestAndPrintResults(void): void&lt;/div&gt;&lt;div&gt;+ runMoveDiagonalOneSquareTestAndPrintResults(void): void&lt;/div&gt;&lt;div&gt;+ runTurn90DegreesTestAndPrintResults(void): void&lt;/div&gt;&lt;div&gt;+ runTurn45DegreesTestAndPrintResults(void): void&lt;/div&gt;&lt;div&gt;+ runWallDetectionTestAndPrintResults(void): void&lt;/div&gt;" style="text;strokeColor=none;fillColor=none;align=left;verticalAlign=top;spacingLeft=4;spacingRight=4;overflow=hidden;rotatable=0;points=[[0,0.5],[1,0.5]];portConstraint=eastwest;whiteSpace=wrap;html=1;" vertex="1" parent="rvAzbzZg28L-5Bt6jg7m-22">
          <mxGeometry y="34" width="380" height="166" as="geometry" />
        </mxCell>
      </root>
    </mxGraphModel>
  </diagram>
</mxfile>
